<svg width="150" height="18" viewBox="0 6 150 18" fill="red" xmlns="http://www.w3.org/2000/svg">
<path d="M5.27653 23.9495H8.42743V8.50601H13.704V5.80557H0V8.50601H5.27653V23.9495Z" fill="red"/>
<path d="M16.4222 10.696H14.0155V23.9495H17.1664V14.8515L17.2022 14.8139C18.1925 13.7726 19.3273 13.2275 20.5768 13.1923V10.698C19.343 10.735 18.1535 11.3016 17.0389 12.384L16.8764 12.5415L16.4222 10.696Z" fill="white"/>
<path d="M28.0037 10.696C26.5731 10.696 24.9631 10.9036 23.2172 11.3124V13.7482C24.9591 13.3437 26.5684 13.1387 28.0037 13.1387C29.8233 13.1387 30.746 13.793 30.746 15.083V16.2561L30.5926 16.2273C29.6873 16.0578 28.7686 15.9719 27.8622 15.9719C24.0005 15.9719 22.1235 17.247 22.1235 19.8706C22.1235 22.6147 23.7017 23.9489 26.9487 23.9489C28.3315 23.9489 29.6142 23.5497 30.7618 22.762L30.8509 22.7012L32.0989 23.9489H33.8972V15.0183C33.8972 12.1094 31.9696 10.6954 28.004 10.6954L28.0037 10.696ZM30.746 20.6448L30.6925 20.6836C29.7051 21.4002 28.6187 21.7636 27.4632 21.7636C26.0108 21.7636 25.2747 21.1137 25.2747 19.8322C25.2747 18.636 26.1453 18.0291 27.8625 18.0291C28.8452 18.0291 29.7805 18.1165 30.6421 18.2889L30.7463 18.3096V20.6443L30.746 20.6448Z" fill="white"/>
<path d="M36.2928 17.0653C36.2928 21.6978 38.608 23.9495 43.37 23.9495C44.5187 23.9495 45.6436 23.8286 46.7148 23.5899V21.1533C45.6511 21.3877 44.6131 21.5065 43.6271 21.5065C40.851 21.5065 39.4431 20.0121 39.4431 17.0653C39.4431 14.4601 40.8507 13.139 43.6271 13.139C44.6122 13.139 45.6502 13.2581 46.7148 13.4925V11.0559C45.6444 10.8168 44.5199 10.696 43.37 10.696C38.6077 10.696 36.2928 12.7794 36.2928 17.0653Z" fill="white"/>
<path d="M69.6644 5.80557L61.9626 23.9495H65.1799L71.3271 8.84902L74.4195 16.2302H70.6064L69.5378 18.9304H75.5463L77.644 23.9495H81.0279L73.1613 5.80557H69.6644Z" fill="white"/>
<path d="M87.2487 10.696C83.0233 10.696 80.9693 12.775 80.9693 17.0525C80.9693 21.6934 83.0696 23.9495 87.3905 23.9495C89.3126 23.9495 91.3078 23.6866 93.3222 23.1682V5.80557H90.1713V11.4106L89.9884 11.3282C89.0567 10.9089 88.1351 10.696 87.249 10.696H87.2487ZM90.1713 14.0228V20.9186L90.0805 20.9471C89.2832 21.1987 88.4213 21.3262 87.5189 21.3262C85.2381 21.3262 84.0815 19.8581 84.0815 16.9623C84.0815 14.5108 85.1947 13.2677 87.3902 13.2677C88.4749 13.2677 89.3909 13.5085 90.1128 13.984L90.1713 14.0228Z" fill="white"/>
<path d="M52.086 5.80557H48.9476V23.9498H52.086V5.80557Z" fill="white"/>
<path d="M60.6654 10.6776H56.9342L53.3092 15.7305V17.9034L57.1281 23.9466H60.882L56.4069 16.7034L60.6654 10.6776Z" fill="white"/>
<path d="M101.226 24V5.8457H104.59V13.3359H113.541V5.8457H116.905V24H113.541V16.2559H104.59V24H101.226ZM132.406 10.6699V24H129.778L129.372 22.2988C127.84 23.4329 126.215 24 124.497 24C121.771 24 120.409 22.3877 120.409 19.1631V10.6699H123.773V19.0742C123.773 20.5469 124.416 21.2832 125.703 21.2832C126.795 21.2832 127.908 20.8473 129.042 19.9756V10.6699H132.406ZM138.957 20.915C139.727 21.1605 140.62 21.2832 141.635 21.2832C143.667 21.2832 144.682 19.8486 144.682 16.9795C144.682 14.6351 143.806 13.4629 142.054 13.4629C140.92 13.4629 139.888 13.6914 138.957 14.1484V20.915ZM135.592 5.8457H138.957V11.6855C139.964 11.0085 141.085 10.6699 142.321 10.6699C146.113 10.6699 148.008 12.8027 148.008 17.0684C148.008 21.6895 145.838 24 141.496 24C139.668 24 137.7 23.818 135.592 23.4541V5.8457Z" fill="white"/>
</svg>
