<svg xmlns="http://www.w3.org/2000/svg" width="320.492" height="62.312" viewBox="0 0 320.492 62.312">
<polygon points="18.121 62.312 28.942 62.312 28.942 9.275 47.063 9.275 47.063 0 0 0 0 9.275 18.121 9.275 18.121 62.312" fill="#203687" stroke-width="0"/>
<path d="m56.398,16.795h-8.265v45.516h10.821v-31.245l.123-.129c3.401-3.576,7.298-5.448,11.589-5.569v-8.566c-4.237.127-8.322,2.073-12.15,5.79l-.558.541-1.56-6.338Z" fill="#203687" stroke-width="0"/>
<path d="m96.172,16.795c-4.913,0-10.442.713-16.438,2.117v8.365c5.982-1.389,11.509-2.093,16.438-2.093,6.249,0,9.418,2.247,9.418,6.677v4.029l-.527-.099c-3.109-.582-6.264-.877-9.377-.877-13.262,0-19.708,4.379-19.708,13.389,0,9.424,5.42,14.006,16.571,14.006,4.749,0,9.154-1.371,13.095-4.076l.306-.209,4.286,4.285h6.176v-30.67c0-9.99-6.62-14.846-20.239-14.846Zm9.418,34.167l-.184.133c-3.391,2.461-7.122,3.709-11.09,3.709-4.988,0-7.516-2.232-7.516-6.633,0-4.108,2.99-6.192,8.887-6.192,3.375,0,6.587.3,9.546.892l.358.071v8.018Z" fill="#203687" stroke-width="0"/>
<path d="m124.639,38.669c0,15.909,7.951,23.642,24.305,23.642,3.945,0,7.808-.415,11.487-1.235v-8.368c-3.653.805-7.218,1.213-10.604,1.213-9.534,0-14.369-5.132-14.369-15.252,0-8.947,4.834-13.484,14.369-13.484,3.383,0,6.948.409,10.604,1.214v-8.368c-3.676-.821-7.538-1.236-11.487-1.236-16.355,0-24.305,7.155-24.305,21.874Z" fill="#203687" stroke-width="0"/>
<polygon points="239.245 0 212.796 62.312 223.845 62.312 244.956 10.453 255.576 35.801 242.481 35.801 238.811 45.075 259.446 45.075 266.65 62.312 278.271 62.312 251.255 0 239.245 0" fill="#203687" stroke-width="0"/>
<path d="m299.634,16.795c-14.511,0-21.565,7.14-21.565,21.83,0,15.938,7.213,23.686,22.052,23.686,6.601,0,13.453-.903,20.371-2.683V0h-10.821v19.249l-.628-.283c-3.2-1.44-6.365-2.171-9.408-2.171Zm10.037,11.425v23.682l-.312.098c-2.738.864-5.698,1.302-8.797,1.302-7.833,0-11.805-5.042-11.805-14.987,0-8.419,3.823-12.688,11.363-12.688,3.725,0,6.871.827,9.35,2.46l.201.132Z" fill="#203687" stroke-width="0"/>
<g>
  <rect x="168.099" y="0" width="10.778" height="62.312" fill="#203687" stroke-width="0"/>
  <polygon points="208.341 16.733 195.527 16.733 183.078 34.086 183.078 41.547 196.193 62.301 209.085 62.301 193.716 37.426 208.341 16.733" fill="#203687" stroke-width="0"/>
</g>
</svg>