<svg xmlns="http://www.w3.org/2000/svg" width="117.11" height="116.983" viewBox="0 0 117.11 116.983">
<polygon points="28.356 89.078 44.376 116.983 44.376 85.033 28.356 57.114 28.356 89.078" fill="#94bcfb" stroke-width="0"/>
<polygon points="72.734 73.163 88.753 101.068 88.753 69.118 72.734 41.199 72.734 73.163" fill="#94bcfb" stroke-width="0"/>
<path d="m0,59.783v57.2h28.358v-59.869c-9.035,1.689-18.412,2.601-28.031,2.646-.109.007-.217.016-.327.022Z" fill="#0554f1" stroke-width="0"/>
<path d="m44.377,116.983h28.356V41.199c-8.784,4.908-18.29,8.958-28.356,12.009v63.775Z" fill="#0554f1" stroke-width="0"/>
<path d="m88.752,30.696v86.287h28.358V0c-7.322,11.588-16.947,21.967-28.358,30.696Z" fill="#0554f1" stroke-width="0"/>
</svg>