<?xml version="1.0" encoding="utf-8"?>
<!-- Generator: Adobe Illustrator 25.3.1, SVG Export Plug-In . SVG Version: 6.00 Build 0)  -->
<svg version="1.1" id="Calque_1" xmlns="http://www.w3.org/2000/svg" xmlns:xlink="http://www.w3.org/1999/xlink" x="0px" y="0px"
	 viewBox="0 0 223 209.5" style="enable-background:new 0 0 248 234.5;" xml:space="preserve">
<style type="text/css">
	.st0{fill:url(#SVGID_1_);}
	.st1{fill:url(#SVGID_2_);}
	.st2{fill:url(#SVGID_3_);}
</style>
<linearGradient id="SVGID_1_" gradientUnits="userSpaceOnUse" x1="82.1097" y1="87.2753" x2="83.5105" y2="38.481" gradientTransform="matrix(1 0 0 -1 0 211.4646)">
	<stop  offset="0.4701" style="stop-color:#F29400"/>
	<stop  offset="0.8429" style="stop-color:#EE7F00"/>
</linearGradient>
<path class="st0" d="M93.4,175.2H72c-3.1,0-5.6-2.5-5.6-5.6v-49.7c0-3.1,2.5-5.6,5.6-5.6h21.4c3.1,0,5.6,2.5,5.6,5.6v49.7
	C99,172.7,96.5,175.2,93.4,175.2z"/>
<linearGradient id="SVGID_2_" gradientUnits="userSpaceOnUse" x1="164.2" y1="151.2056" x2="164.2" y2="39.4077" gradientTransform="matrix(1 0 0 -1 0 211.4646)">
	<stop  offset="0.187" style="stop-color:#88BB3C"/>
	<stop  offset="0.1931" style="stop-color:#88BB3C"/>
	<stop  offset="0.7026" style="stop-color:#65B041"/>
	<stop  offset="0.9996" style="stop-color:#55AC42"/>
</linearGradient>
<path class="st1" d="M174.9,175.2h-21.4c-3.1,0-5.6-2.5-5.6-5.6V58.4c0-3.1,2.5-5.6,5.6-5.6h21.4c3.1,0,5.6,2.5,5.6,5.6v111.2
	C180.5,172.7,178,175.2,174.9,175.2z"/>
<linearGradient id="SVGID_3_" gradientUnits="userSpaceOnUse" x1="122.6102" y1="113.3077" x2="124.721" y2="39.7836" gradientTransform="matrix(1 0 0 -1 0 211.4646)">
	<stop  offset="0.3349" style="stop-color:#008CC9"/>
	<stop  offset="1" style="stop-color:#2964A9"/>
</linearGradient>
<path class="st2" d="M134.2,175.2h-21.4c-3.1,0-5.6-2.5-5.6-5.6V88.7c0-3.1,2.5-5.6,5.6-5.6h21.4c3.1,0,5.6,2.5,5.6,5.6v80.9
	C139.8,172.7,137.2,175.2,134.2,175.2z"/>
</svg>
